:SAMPLES-PER-SECOND 30
:FULLY-SPECIFIED
:DEGREES
1
root  77.7869 40.3683 17.4698 166.928 -87.9138 -165.649
RightUpLeg  -2.36777 -6.38077 -2.35511
RightLeg  3.46778 -3.40543 3.78132
RightFoot  -2.34076 0.257508 -3.50453
RightToes  2.32829e-010 0 -3.6325e-017
Spine  3.76263 -0.263917 1.47078
Spine1  -0.27161 -0.0565894 -1.11496
HEad  -3.26024 5.50211 0.332702
LeftShoulder1  0.670504 -0.0504553 -11.5389
LeftArm  -5.76775 21.1077 -30.3392
LeftForeArm  34.5442 -49.7655 -10.6168
LeftHand  -0.244104 0.0205437 5.32207
RightShoulder  0.527228 -0.354541 9.38866
RightArm  -19.0541 -3.25275 2.63129
RightForeArm  5.76968 0.302174 2.83161
RightHand  -1.07572 4.49465 -12.8649
LeftUpLeg  -1.61159 5.12539 2.25682
LeftLeg  2.41161 13.9309 -4.37971
LeftFoot  -3.08266 -0.0851927 1.52267
LeftToes  -1.53708e-010 -3.96652e-011 -3.29181e-011
2
root  77.7818 40.3683 17.4696 166.831 -87.947 -165.53
RightUpLeg  -2.37666 -6.37486 -2.35773
RightLeg  3.46989 -3.43025 3.77245
RightFoot  -2.34213 0.255125 -3.46737
RightToes  2.32829e-010 0 -3.6325e-017
Spine  3.67787 -0.281655 1.43666
Spine1  -0.175703 -0.0867484 -1.05356
HEad  -3.4988 5.69114 0.252317
LeftShoulder1  0.656982 0.0209342 -11.5325
LeftArm  -7.09248 20.9751 -30.3994
LeftForeArm  32.6008 -48.9902 -10.4389
LeftHand  -0.244104 0.0205437 5.32207
RightShoulder  0.517682 -0.397814 9.30521
RightArm  -19.1456 -3.18873 2.73321
RightForeArm  5.67695 0.274998 2.81099
RightHand  -1.07511 4.41707 -12.9546
LeftUpLeg  -1.6517 5.09795 2.24261
LeftLeg  2.45621 13.9198 -4.34515
LeftFoot  -3.1211 -0.0793106 1.43122
LeftToes  -1.53708e-010 -3.96652e-011 -3.29181e-011
3
root  77.7706 40.3684 17.4684 166.543 -88.017 -165.221
RightUpLeg  -2.37461 -6.38763 -2.37124
RightLeg  3.47954 -3.47583 3.77258
RightFoot  -2.36116 0.252476 -3.42607
RightToes  2.32829e-010 0 -3.6325e-017
Spine  3.55204 -0.317764 1.39704
Spine1  -0.0258258 -0.138464 -0.97418
HEad  -3.87022 6.01876 0.162966
LeftShoulder1  0.639626 0.116674 -11.5483
LeftArm  -8.83275 20.8134 -30.4609
LeftForeArm  29.9797 -48.0386 -10.2472
LeftHand  -0.244104 0.0205437 5.32207
RightShoulder  0.499474 -0.484715 9.16773
RightArm  -19.3071 -3.09071 2.91799
RightForeArm  5.66413 0.227085 2.76385
RightHand  -1.07863 4.35371 -13.076
LeftUpLeg  -1.67372 5.06648 2.20971
LeftLeg  2.46406 13.8631 -4.32117
LeftFoot  -3.06565 -0.0920303 1.62897
LeftToes  -1.53708e-010 -3.96652e-011 -3.29181e-011
4
root  77.7561 40.3685 17.4648 165.976 -88.0655 -164.649
RightUpLeg  -2.35053 -6.39209 -2.36511
RightLeg  3.48061 -3.52385 3.77419
RightFoot  -2.38212 0.251644 -3.41431
RightToes  2.32829e-010 0 -3.6325e-017
Spine  3.45741 -0.341198 1.40331
Spine1  0.0643299 -0.16361 -0.966259
HEad  -4.11009 6.27834 0.150708
LeftShoulder1  0.629176 0.170597 -11.5356
LeftArm  -10.6017 20.6955 -30.5284
LeftForeArm  27.2538 -47.1397 -10.0929
LeftHand  -0.244104 0.0205437 5.32207
RightShoulder  0.493727 -0.51296 9.12723
RightArm  -19.3898 -3.06674 2.97822
RightForeArm  5.80744 0.182827 2.72523
RightHand  -1.08713 4.41953 -13.0921
LeftUpLeg  -1.65076 5.0678 2.20607
LeftLeg  2.42955 13.7938 -4.32943
LeftFoot  -2.99085 -0.108795 1.88964
LeftToes  -1.53708e-010 -3.96652e-011 -3.29181e-011
5
root  77.7383 40.3686 17.458 165.503 -88.0664 -164.173
RightUpLeg  -2.30839 -6.36635 -2.33221
RightLeg  3.44218 -3.5631 3.76215
RightFoot  -2.39182 0.251744 -3.42183
RightToes  2.32829e-010 0 -3.6325e-017
Spine  3.34164 -0.323475 1.37728
Spine1  0.153294 -0.152613 -0.932255
HEad  -4.15025 6.32605 0.180251
LeftShoulder1  0.624062 0.197414 -11.5319
LeftArm  -12.4076 20.5999 -30.5738
LeftForeArm  24.3857 -46.2841 -9.97198
LeftHand  -0.244104 0.0205437 5.32207
RightShoulder  0.497716 -0.495669 9.16952
RightArm  -19.3605 -3.09285 2.89875
RightForeArm  5.93541 0.152231 2.7205
RightHand  -1.10079 4.57309 -13.0554
LeftUpLeg  -1.61699 5.09007 2.23715
LeftLeg  2.41247 13.7624 -4.34002
LeftFoot  -2.99516 -0.110284 1.9128
LeftToes  -1.53708e-010 -3.96652e-011 -3.29181e-011
6
root  77.7192 40.3687 17.4499 165.368 -88.0478 -164.034
RightUpLeg  -2.25322 -6.33214 -2.29958
RightLeg  3.37601 -3.58534 3.74493
RightFoot  -2.39526 0.251343 -3.42293
RightToes  2.32829e-010 0 -3.6325e-017
Spine  3.18814 -0.282544 1.27437
Spine1  0.304261 -0.13649 -0.803535
HEad  -4.16147 6.20167 0.190153
LeftShoulder1  0.617495 0.241721 -11.5889
LeftArm  -14.2562 20.4809 -30.5812
LeftForeArm  21.4044 -45.4804 -9.88334
LeftHand  -0.244104 0.0205437 5.32207
RightShoulder  0.487069 -0.559266 9.16385
RightArm  -19.3471 -3.04909 2.88323
RightForeArm  5.8979 0.135688 2.73005
RightHand  -1.11004 4.63766 -13.0936
LeftUpLeg  -1.59294 5.10312 2.26651
LeftLeg  2.42881 13.7661 -4.33041
LeftFoot  -3.04106 -0.103021 1.79986
LeftToes  -1.53708e-010 -3.96652e-011 -3.29181e-011
7
root  77.7045 40.3688 17.4436 164.972 -88.0338 -163.649
RightUpLeg  -2.18525 -6.30731 -2.27112
RightLeg  3.31091 -3.59553 3.73941
RightFoot  -2.39061 0.25065 -3.41931
RightToes  2.32829e-010 0 -3.6325e-017
Spine  3.1176 -0.270489 1.22118
Spine1  0.400784 -0.139165 -0.729376
HEad  -4.20724 6.068 0.217191
LeftShoulder1  0.606175 0.308179 -11.6264
LeftArm  -16.1703 20.3522 -30.6107
LeftForeArm  18.3796 -44.7297 -9.82032
LeftHand  -0.244104 0.0205437 5.32207
RightShoulder  0.467918 -0.668159 9.11909
RightArm  -19.4091 -2.95908 2.96539
RightForeArm  5.76821 0.135551 2.7257
RightHand  -1.10341 4.54002 -13.1745
LeftUpLeg  -1.56783 5.11405 2.29347
LeftLeg  2.45998 13.7578 -4.31075
LeftFoot  -3.06764 -0.0998669 1.75082
LeftToes  -1.53708e-010 -3.96652e-011 -3.29181e-011
8
root  77.6958 40.3689 17.4406 164.087 -88.0304 -162.784
RightUpLeg  -2.12869 -6.29068 -2.23941
RightLeg  3.26798 -3.61043 3.74624
RightFoot  -2.38146 0.251122 -3.43378
RightToes  2.32829e-010 0 -3.6325e-017
Spine  3.16991 -0.301982 1.28966
Spine1  0.345997 -0.157297 -0.805408
HEad  -4.20268 5.9732 0.289839
LeftShoulder1  0.593929 0.364923 -11.5717
LeftArm  -18.1406 20.2599 -30.6921
LeftForeArm  15.366 -44.0321 -9.77722
LeftHand  -0.244104 0.0205437 5.32207
RightShoulder  0.480689 -0.599084 9.17046
RightArm  -19.4149 -3.01486 2.89772
RightForeArm  5.73346 0.150866 2.72208
RightHand  -1.09835 4.47085 -13.1678
LeftUpLeg  -1.54468 5.13762 2.33108
LeftLeg  2.4869 13.7214 -4.30225
LeftFoot  -3.08302 -0.0998862 1.75112
LeftToes  -1.53708e-010 -3.96652e-011 -3.29181e-011
9
root  77.6894 40.3691 17.4391 163.632 -88.0105 -162.328
RightUpLeg  -2.1188 -6.27377 -2.21183
RightLeg  3.26029 -3.61645 3.74707
RightFoot  -2.3876 0.252602 -3.46403
RightToes  2.32829e-010 0 -3.6325e-017
Spine  3.24477 -0.312701 1.36494
Spine1  0.216533 -0.15351 -0.884742
HEad  -4.13389 5.85421 0.336212
LeftShoulder1  0.587916 0.390573 -11.5221
LeftArm  -20.1294 20.2197 -30.7422
LeftForeArm  12.387 -43.3963 -9.75422
LeftHand  -0.244104 0.0205437 5.32207
RightShoulder  0.53207 -0.311757 9.30769
RightArm  -19.2688 -3.29237 2.58353
RightForeArm  5.85462 0.167892 2.72916
RightHand  -1.10739 4.62313 -13.0708
LeftUpLeg  -1.53842 5.16685 2.36485
LeftLeg  2.50057 13.708 -4.31257
LeftFoot  -3.10983 -0.0984183 1.72829
LeftToes  -1.53708e-010 -3.96652e-011 -3.29181e-011
10
root  77.6821 40.3692 17.4368 164.689 -87.9514 -163.341
RightUpLeg  -2.18679 -6.26466 -2.21213
RightLeg  3.30721 -3.57234 3.73028
RightFoot  -2.42458 0.25324 -3.48138
RightToes  2.32829e-010 0 -3.6325e-017
Spine  3.24412 -0.24957 1.34245
Spine1  0.136068 -0.097017 -0.842224
HEad  -4.20924 5.78854 0.268339
LeftShoulder1  0.589772 0.390742 -11.5719
LeftArm  -22.1369 20.1851 -30.7199
LeftForeArm  9.49194 -42.8243 -9.74744
LeftHand  -0.244104 0.0205437 5.32207
RightShoulder  0.572086 -0.0781485 9.34561
RightArm  -19.1061 -3.61633 2.31042
RightForeArm  5.9959 0.186999 2.73644
RightHand  -1.12444 4.84251 -12.9943
LeftUpLeg  -1.55776 5.17605 2.35865
LeftLeg  2.47933 13.7712 -4.33797
LeftFoot  -3.12777 -0.0979377 1.72082
LeftToes  -1.53708e-010 -3.96652e-011 -3.29181e-011
11
root  77.6734 40.3693 17.4336 166.458 -87.8638 -165.035
RightUpLeg  -2.30129 -6.26199 -2.22752
RightLeg  3.38299 -3.48266 3.70908
RightFoot  -2.46345 0.25243 -3.47648
RightToes  2.32829e-010 0 -3.6325e-017
Spine  3.18064 -0.163962 1.3247
Spine1  0.143728 -0.0164159 -0.802989
HEad  -4.55773 5.92458 0.104868
LeftShoulder1  0.592692 0.382085 -11.6438
LeftArm  -24.191 20.1079 -30.7014
LeftForeArm  6.7323 -42.2965 -9.74577
LeftHand  -0.244104 0.0205437 5.32207
RightShoulder  0.563006 -0.102914 9.18115
RightArm  -19.1313 -3.77136 2.37402
RightForeArm  5.98334 0.214638 2.71568
RightHand  -1.12243 4.81318 -13.0078
LeftUpLeg  -1.5948 5.16845 2.32785
LeftLeg  2.4369 13.879 -4.36382
LeftFoot  -3.13141 -0.0996038 1.74672
LeftToes  -1.53708e-010 -3.96652e-011 -3.29181e-011
